<?xml version="1.0" encoding="UTF-8"?>
<!DOCTYPE svg PUBLIC "-//W3C//DTD SVG 1.1//EN" "http://www.w3.org/Graphics/SVG/1.1/DTD/svg11.dtd">
<svg xmlns="http://www.w3.org/2000/svg" version="1.1" width="512px" height="512px" style="shape-rendering:geometricPrecision; text-rendering:geometricPrecision; image-rendering:optimizeQuality; fill-rule:evenodd; clip-rule:evenodd" xmlns:xlink="http://www.w3.org/1999/xlink">
<g><path style="opacity:1" fill="#070707" d="M 458.5,23.5 C 454.917,24.5178 451.25,25.3511 447.5,26C 444.629,27.9345 441.629,29.6012 438.5,31C 436.503,35.5552 433.17,39.0552 428.5,41.5C 427.614,42.325 427.281,43.325 427.5,44.5C 426.167,44.5 424.833,44.5 423.5,44.5C 423.66,42.8008 423.494,41.1341 423,39.5C 422.107,38.9186 421.107,38.5852 420,38.5C 407.77,43.2103 397.27,50.5437 388.5,60.5C 386.453,62.0152 384.119,62.8485 381.5,63C 376.167,68.3333 370.833,73.6667 365.5,79C 363.866,79.4935 362.199,79.6602 360.5,79.5C 358.553,84.7802 354.887,88.4469 349.5,90.5C 346.28,93.3754 343.113,96.3754 340,99.5C 338.896,103.173 336.73,106.173 333.5,108.5C 330.195,113.638 326.695,118.638 323,123.5C 322.506,125.134 322.34,126.801 322.5,128.5C 320.278,128.822 318.444,128.155 317,126.5C 313.803,120.9 311.47,114.9 310,108.5C 306.84,104.438 303.506,100.438 300,96.5C 295.421,87.0017 290.088,78.0017 284,69.5C 280.757,66.5827 277.257,64.0827 273.5,62C 270.732,60.238 269.232,57.738 269,54.5C 265.06,50.3123 260.393,48.3123 255,48.5C 254.333,59.1667 254.333,69.8333 255,80.5C 256.405,83.6188 256.905,86.9521 256.5,90.5C 255.167,90.5 253.833,90.5 252.5,90.5C 251.495,87.2791 250.661,83.9457 250,80.5C 245.402,75.2273 240.235,70.7273 234.5,67C 228.217,65.3696 221.884,64.0363 215.5,63C 203.17,61.6748 191.17,62.6748 179.5,66C 178.056,67.7635 177.056,69.7635 176.5,72C 175.167,72.6667 173.833,72.6667 172.5,72C 171.881,70.2429 170.714,69.0762 169,68.5C 165.364,70.0944 161.531,70.9278 157.5,71C 151.87,72.6845 151.204,75.5179 155.5,79.5C 159.164,80.4913 161.83,82.6579 163.5,86C 167.266,86.7514 170.266,88.7514 172.5,92C 178.751,95.4479 185.418,97.6146 192.5,98.5C 192.5,99.8333 192.5,101.167 192.5,102.5C 183.809,102.087 175.809,99.5867 168.5,95C 158.244,94.4289 150.911,89.4289 146.5,80C 144.866,79.5065 143.199,79.3398 141.5,79.5C 141.896,76.9556 141.229,74.7889 139.5,73C 140.685,71.647 142.019,70.4803 143.5,69.5C 146.848,72.4129 149.181,71.7462 150.5,67.5C 147.026,64.5209 144.526,60.8543 143,56.5C 141.601,55.7734 140.101,55.2734 138.5,55C 129.081,45.9172 120.081,36.5839 111.5,27C 107.55,26.226 104.55,24.0593 102.5,20.5C 97.9173,18.5153 93.2506,18.1819 88.5,19.5C 88.0196,16.3148 88.6863,13.4815 90.5,11C 94.5694,10.525 98.5694,10.1917 102.5,10C 111.608,17.0736 120.608,24.407 129.5,32C 134.021,37.0203 138.355,42.187 142.5,47.5C 144.078,48.2978 145.744,48.7978 147.5,49C 150.103,50.9362 151.936,53.4362 153,56.5C 154.579,58.0412 156.413,59.2078 158.5,60C 169.387,61.0477 179.72,59.2144 189.5,54.5C 198.695,54.5907 207.861,54.5907 217,54.5C 223.93,55.2937 230.763,56.4604 237.5,58C 240.128,61.1469 243.462,62.9802 247.5,63.5C 247.609,58.1402 247.276,52.8069 246.5,47.5C 246.549,40.6186 250.049,37.2853 257,37.5C 261.053,37.9245 264.72,39.2578 268,41.5C 268.483,42.448 268.649,43.448 268.5,44.5C 271.232,46.0352 273.898,47.8685 276.5,50C 278.041,51.5793 279.208,53.4127 280,55.5C 285,59.1667 289.333,63.5 293,68.5C 299.643,78.7998 306.643,88.7998 314,98.5C 315.884,103.329 318.051,107.995 320.5,112.5C 324.721,105.88 329.055,99.3805 333.5,93C 338.813,90.0189 343.146,86.0189 346.5,81C 354.434,76.0645 361.434,70.0645 367.5,63C 375.277,56.6042 383.61,50.9376 392.5,46C 395.64,43.772 398.306,41.1053 400.5,38C 409.08,33.7503 418.08,30.7503 427.5,29C 434.923,21.4572 443.923,18.1239 454.5,19C 457.447,19.1118 458.78,20.6118 458.5,23.5 Z"/></g>
<g><path style="opacity:1" fill="#5c4a3e" d="M 458.5,23.5 C 460.564,23.687 462.564,24.187 464.5,25C 466.37,27.0396 468.37,28.8729 470.5,30.5C 469.94,32.8008 469.44,35.1341 469,37.5C 468.632,38.91 467.799,39.91 466.5,40.5C 465.667,73.1616 465.167,105.828 465,138.5C 462.052,146.407 460.719,154.74 461,163.5C 458.595,169.716 456.595,176.049 455,182.5C 452.903,187.36 450.736,192.026 448.5,196.5C 449.303,195.577 449.47,194.577 449,193.5C 447.391,194.147 445.891,194.98 444.5,196C 427.991,199.189 411.991,197.856 396.5,192C 393.698,189.627 393.031,186.793 394.5,183.5C 392.955,182.548 391.288,182.215 389.5,182.5C 387.975,171.727 385.808,161.061 383,150.5C 381.786,148.951 380.286,147.785 378.5,147C 375.167,146.667 371.833,146.333 368.5,146C 367.692,145.692 367.025,145.192 366.5,144.5C 373,134.833 379.5,125.167 386,115.5C 389.548,122.099 393.714,128.265 398.5,134C 405.265,136.243 408.098,133.743 407,126.5C 402.082,119 397.416,111.333 393,103.5C 391.406,101.703 389.406,100.703 387,100.5C 384.107,101.711 381.44,103.378 379,105.5C 371.006,116.153 363.506,127.153 356.5,138.5C 353.559,139.522 350.559,140.355 347.5,141C 320.327,141.955 293.16,143.122 266,144.5C 260.433,143.9 254.933,142.9 249.5,141.5C 245.594,141.572 243.427,143.572 243,147.5C 228.646,151.212 214.146,154.546 199.5,157.5C 196.865,156.947 194.199,156.614 191.5,156.5C 160.919,160.158 130.253,162.491 99.5,163.5C 96.8603,151.269 94.6936,138.936 93,126.5C 89.6667,122.5 86.3333,122.5 83,126.5C 82.3333,131.167 82.3333,135.833 83,140.5C 85.0904,148.952 86.9237,157.452 88.5,166C 86.5189,170.505 87.1856,174.505 90.5,178C 92.1341,178.494 93.8008,178.66 95.5,178.5C 87.9943,179.56 80.3277,180.06 72.5,180C 70.0771,178.429 68.7438,176.263 68.5,173.5C 64.7852,173.423 61.1185,173.756 57.5,174.5C 57.2367,181.034 57.9033,187.367 59.5,193.5C 57.1469,187.592 55.8136,181.258 55.5,174.5C 53.5984,172.937 52.5984,170.937 52.5,168.5C 53.2967,149.184 53.7967,129.851 54,110.5C 55.0958,106.976 55.9291,103.31 56.5,99.5C 57.086,99.2907 57.586,98.9574 58,98.5C 59.6666,89.411 61.3333,80.411 63,71.5C 64.9407,66.3579 67.2741,61.3579 70,56.5C 70.3323,49.0799 72.999,42.7466 78,37.5C 80.6816,32.8169 82.1816,27.8169 82.5,22.5C 84.2163,20.9752 86.2163,19.9752 88.5,19.5C 93.2506,18.1819 97.9173,18.5153 102.5,20.5C 104.55,24.0593 107.55,26.226 111.5,27C 120.081,36.5839 129.081,45.9172 138.5,55C 140.101,55.2734 141.601,55.7734 143,56.5C 144.526,60.8543 147.026,64.5209 150.5,67.5C 149.181,71.7462 146.848,72.4129 143.5,69.5C 142.019,70.4803 140.685,71.647 139.5,73C 141.229,74.7889 141.896,76.9556 141.5,79.5C 143.199,79.3398 144.866,79.5065 146.5,80C 150.911,89.4289 158.244,94.4289 168.5,95C 175.809,99.5867 183.809,102.087 192.5,102.5C 192.5,101.167 192.5,99.8333 192.5,98.5C 185.418,97.6146 178.751,95.4479 172.5,92C 170.266,88.7514 167.266,86.7514 163.5,86C 161.83,82.6579 159.164,80.4913 155.5,79.5C 151.204,75.5179 151.87,72.6845 157.5,71C 161.531,70.9278 165.364,70.0944 169,68.5C 170.714,69.0762 171.881,70.2429 172.5,72C 173.833,72.6667 175.167,72.6667 176.5,72C 177.056,69.7635 178.056,67.7635 179.5,66C 191.17,62.6748 203.17,61.6748 215.5,63C 221.884,64.0363 228.217,65.3696 234.5,67C 240.235,70.7273 245.402,75.2273 250,80.5C 250.661,83.9457 251.495,87.2791 252.5,90.5C 253.833,90.5 255.167,90.5 256.5,90.5C 256.905,86.9521 256.405,83.6188 255,80.5C 254.333,69.8333 254.333,59.1667 255,48.5C 260.393,48.3123 265.06,50.3123 269,54.5C 269.232,57.738 270.732,60.238 273.5,62C 277.257,64.0827 280.757,66.5827 284,69.5C 290.088,78.0017 295.421,87.0017 300,96.5C 303.506,100.438 306.84,104.438 310,108.5C 311.47,114.9 313.803,120.9 317,126.5C 318.444,128.155 320.278,128.822 322.5,128.5C 322.34,126.801 322.506,125.134 323,123.5C 326.695,118.638 330.195,113.638 333.5,108.5C 336.73,106.173 338.896,103.173 340,99.5C 343.113,96.3754 346.28,93.3754 349.5,90.5C 354.887,88.4469 358.553,84.7802 360.5,79.5C 362.199,79.6602 363.866,79.4935 365.5,79C 370.833,73.6667 376.167,68.3333 381.5,63C 384.119,62.8485 386.453,62.0152 388.5,60.5C 397.27,50.5437 407.77,43.2103 420,38.5C 421.107,38.5852 422.107,38.9186 423,39.5C 423.494,41.1341 423.66,42.8008 423.5,44.5C 424.833,44.5 426.167,44.5 427.5,44.5C 427.281,43.325 427.614,42.325 428.5,41.5C 433.17,39.0552 436.503,35.5552 438.5,31C 441.629,29.6012 444.629,27.9345 447.5,26C 451.25,25.3511 454.917,24.5178 458.5,23.5 Z"/></g>
<g><path style="opacity:1" fill="#040404" d="M 82.5,22.5 C 82.1816,27.8169 80.6816,32.8169 78,37.5C 72.999,42.7466 70.3323,49.0799 70,56.5C 67.2741,61.3579 64.9407,66.3579 63,71.5C 61.3333,80.411 59.6666,89.411 58,98.5C 57.586,98.9574 57.086,99.2907 56.5,99.5C 55.9291,103.31 55.0958,106.976 54,110.5C 53.7967,129.851 53.2967,149.184 52.5,168.5C 52.5984,170.937 53.5984,172.937 55.5,174.5C 55.8136,181.258 57.1469,187.592 59.5,193.5C 59.3343,197.846 59.501,202.179 60,206.5C 62.3283,209.337 64.495,212.337 66.5,215.5C 64.5989,216.935 64.2655,218.602 65.5,220.5C 68.2614,219.65 68.9281,220.65 67.5,223.5C 68.4978,226.028 69.3311,226.028 70,223.5C 69.436,227.79 71.2693,229.957 75.5,230C 79.79,232.914 80.4567,236.414 77.5,240.5C 76.391,240.557 75.391,240.89 74.5,241.5C 71.9162,240.952 70.9162,239.285 71.5,236.5C 65.5272,236.593 62.6939,233.593 63,227.5C 60.3384,222.87 57.6717,218.203 55,213.5C 52.1587,201.135 49.1587,188.801 46,176.5C 44.0698,159.654 44.2364,142.82 46.5,126C 46.0678,123.178 45.7345,120.345 45.5,117.5C 47.8579,103.069 50.6913,88.7357 54,74.5C 57.6124,64.9392 60.9458,55.2725 64,45.5C 66.9304,38.9169 70.2637,32.5836 74,26.5C 76.1413,23.6792 78.9746,22.3459 82.5,22.5 Z"/></g>
<g><path style="opacity:1" fill="#070606" d="M 435.5,230.5 C 433.565,231.15 431.565,231.483 429.5,231.5C 430.853,222.738 435.52,216.738 443.5,213.5C 442.977,209.068 444.311,205.401 447.5,202.5C 448.466,200.604 448.799,198.604 448.5,196.5C 450.736,192.026 452.903,187.36 455,182.5C 456.595,176.049 458.595,169.716 461,163.5C 460.719,154.74 462.052,146.407 465,138.5C 465.167,105.828 465.667,73.1616 466.5,40.5C 467.799,39.91 468.632,38.91 469,37.5C 469.44,35.1341 469.94,32.8008 470.5,30.5C 473.449,28.8746 475.449,29.708 476.5,33C 476.166,39.9185 474.833,46.7518 472.5,53.5C 472.691,78.3934 473.025,103.227 473.5,128C 473.26,140.145 471.593,152.145 468.5,164C 468.77,165.514 469.103,167.014 469.5,168.5C 465.89,175.064 463.39,182.064 462,189.5C 458.424,196.45 455.757,203.784 454,211.5C 451.806,214.554 450.139,217.888 449,221.5C 444.095,223.907 439.595,226.907 435.5,230.5 Z"/></g>
<g><path style="opacity:1" fill="#050504" d="M 389.5,182.5 C 389.499,222.489 382.499,261.155 368.5,298.5C 367.662,298.842 367.328,299.508 367.5,300.5C 365.199,303.81 362.866,307.143 360.5,310.5C 358.5,312.833 356.5,315.167 354.5,317.5C 342.051,328.03 327.717,331.864 311.5,329C 300.832,325.5 290.498,321.167 280.5,316C 266.411,303.33 257.911,287.497 255,268.5C 253.051,234.582 249.218,200.915 243.5,167.5C 243.5,165.167 243.5,162.833 243.5,160.5C 234.493,162.073 225.493,163.739 216.5,165.5C 216.5,166.5 216.5,167.5 216.5,168.5C 221.274,189.948 222.441,211.615 220,233.5C 216.467,250.032 213.8,266.698 212,283.5C 209.674,297.323 202.507,307.823 190.5,315C 175.419,315.963 160.419,315.296 145.5,313C 140.168,311.001 135.168,308.501 130.5,305.5C 128.178,303.336 125.511,301.669 122.5,300.5C 120.5,297.833 118.167,295.5 115.5,293.5C 114.833,292.167 113.833,291.167 112.5,290.5C 107.024,284.236 102.524,277.236 99,269.5C 93.1644,252.633 90.831,235.3 92,217.5C 94.3952,204.792 96.8952,192.125 99.5,179.5C 98.3112,178.571 96.9778,178.238 95.5,178.5C 93.8008,178.66 92.1341,178.494 90.5,178C 87.1856,174.505 86.5189,170.505 88.5,166C 86.9237,157.452 85.0904,148.952 83,140.5C 82.3333,135.833 82.3333,131.167 83,126.5C 86.3333,122.5 89.6667,122.5 93,126.5C 94.6936,138.936 96.8603,151.269 99.5,163.5C 130.253,162.491 160.919,160.158 191.5,156.5C 194.199,156.614 196.865,156.947 199.5,157.5C 214.146,154.546 228.646,151.212 243,147.5C 243.427,143.572 245.594,141.572 249.5,141.5C 254.933,142.9 260.433,143.9 266,144.5C 293.16,143.122 320.327,141.955 347.5,141C 350.559,140.355 353.559,139.522 356.5,138.5C 363.506,127.153 371.006,116.153 379,105.5C 381.44,103.378 384.107,101.711 387,100.5C 389.406,100.703 391.406,101.703 393,103.5C 397.416,111.333 402.082,119 407,126.5C 408.098,133.743 405.265,136.243 398.5,134C 393.714,128.265 389.548,122.099 386,115.5C 379.5,125.167 373,134.833 366.5,144.5C 367.025,145.192 367.692,145.692 368.5,146C 371.833,146.333 375.167,146.667 378.5,147C 380.286,147.785 381.786,148.951 383,150.5C 385.808,161.061 387.975,171.727 389.5,182.5 Z"/></g>
<g><path style="opacity:1" fill="#5d4b3e" d="M 377.5,180.5 C 366.668,180.13 356.002,178.63 345.5,176C 344.257,174.846 343.257,173.512 342.5,172C 335.476,170.795 328.476,169.462 321.5,168C 299.474,168.359 277.474,168.192 255.5,167.5C 254.203,163.999 254.203,160.499 255.5,157C 283.199,156.968 310.866,156.135 338.5,154.5C 350.164,155.56 361.831,156.56 373.5,157.5C 374.674,165.196 376.007,172.862 377.5,180.5 Z"/></g>
<g><path style="opacity:1" fill="#5a493d" d="M 243.5,167.5 C 234.498,167.786 225.498,168.119 216.5,168.5C 216.5,167.5 216.5,166.5 216.5,165.5C 225.493,163.739 234.493,162.073 243.5,160.5C 243.5,162.833 243.5,165.167 243.5,167.5 Z"/></g>
<g><path style="opacity:1" fill="#f6f6f6" d="M 243.5,167.5 C 249.218,200.915 253.051,234.582 255,268.5C 257.911,287.497 266.411,303.33 280.5,316C 290.498,321.167 300.832,325.5 311.5,329C 327.717,331.864 342.051,328.03 354.5,317.5C 357.273,317.188 359.607,316.022 361.5,314C 363.5,313.667 365.5,313.333 367.5,313C 368.257,311.488 369.257,310.154 370.5,309C 375.299,308.883 379.633,307.717 383.5,305.5C 384.164,303.133 385.497,301.133 387.5,299.5C 387.023,298.522 386.357,297.689 385.5,297C 385.833,296.667 386.167,296.333 386.5,296C 381.173,293.377 376.506,294.043 372.5,298C 371.207,298.49 369.873,298.657 368.5,298.5C 382.499,261.155 389.499,222.489 389.5,182.5C 391.288,182.215 392.955,182.548 394.5,183.5C 393.031,186.793 393.698,189.627 396.5,192C 411.991,197.856 427.991,199.189 444.5,196C 445.891,194.98 447.391,194.147 449,193.5C 449.47,194.577 449.303,195.577 448.5,196.5C 447.245,200.082 445.411,203.416 443,206.5C 442.505,208.473 442.338,210.473 442.5,212.5C 441.448,212.351 440.448,212.517 439.5,213C 437.295,215.54 434.795,217.707 432,219.5C 429.646,223.533 428.48,227.866 428.5,232.5C 430.5,232.5 432.5,232.5 434.5,232.5C 434.733,234.062 435.4,235.395 436.5,236.5C 436.5,237.167 436.167,237.5 435.5,237.5C 429.465,237.908 423.465,238.574 417.5,239.5C 417.5,240.5 417.5,241.5 417.5,242.5C 415.167,242.5 412.833,242.5 410.5,242.5C 410.194,245.385 410.527,248.052 411.5,250.5C 412.152,251.725 413.319,252.392 415,252.5C 418.624,250.143 422.124,250.143 425.5,252.5C 426.386,251.675 426.719,250.675 426.5,249.5C 425.448,249.649 424.448,249.483 423.5,249C 435.62,246.688 447.953,245.854 460.5,246.5C 460.5,248.167 460.5,249.833 460.5,251.5C 458.704,252.793 457.037,254.293 455.5,256C 453.527,256.495 451.527,256.662 449.5,256.5C 449.5,257.5 449.5,258.5 449.5,259.5C 448.127,259.343 446.793,259.51 445.5,260C 441.839,263.511 437.506,265.345 432.5,265.5C 432.5,266.5 432.5,267.5 432.5,268.5C 430.801,268.34 429.134,268.506 427.5,269C 426.748,269.671 426.414,270.504 426.5,271.5C 423.451,273.863 420.118,275.863 416.5,277.5C 415.352,281.981 415.185,286.648 416,291.5C 417.186,293.677 419.019,294.677 421.5,294.5C 421.263,295.791 421.596,296.791 422.5,297.5C 424.686,300.612 427.019,303.612 429.5,306.5C 430.17,308.291 430.837,309.958 431.5,311.5C 431.077,314.288 432.077,316.288 434.5,317.5C 435.474,319.743 435.808,322.076 435.5,324.5C 430.728,326.314 426.062,327.981 421.5,329.5C 415.158,329.334 408.825,329.5 402.5,330C 401.221,332.498 401.221,334.998 402.5,337.5C 400.847,337.66 399.514,338.326 398.5,339.5C 397.078,339.25 396.078,338.417 395.5,337C 393.833,336.833 392.167,336.667 390.5,336.5C 387.434,337.046 384.434,337.712 381.5,338.5C 381.5,339.5 381.5,340.5 381.5,341.5C 376.1,343.048 370.767,344.881 365.5,347C 362.811,352.079 358.811,354.912 353.5,355.5C 345.323,357.044 337.156,358.711 329,360.5C 327.93,360.472 327.097,360.139 326.5,359.5C 327.301,357.958 327.634,356.292 327.5,354.5C 334.714,354.621 341.047,352.454 346.5,348C 350.393,344.254 350.393,340.588 346.5,337C 332.178,335.412 317.845,335.078 303.5,336C 296.865,333.35 290.865,329.684 285.5,325C 283.3,319.059 278.966,316.392 272.5,317C 271.016,315.426 269.349,314.093 267.5,313C 259.74,311.883 251.907,311.383 244,311.5C 227.97,309.976 212.803,312.81 198.5,320C 194.662,323.909 190.996,327.909 187.5,332C 184.037,333.8 180.37,334.966 176.5,335.5C 170.778,343.038 163.111,347.538 153.5,349C 147.5,349.333 141.5,349.667 135.5,350C 133.944,350.72 132.944,351.887 132.5,353.5C 131.596,354.209 131.263,355.209 131.5,356.5C 128.278,354.979 124.944,353.646 121.5,352.5C 117.123,350.305 112.456,349.305 107.5,349.5C 107.405,347.214 106.738,345.214 105.5,343.5C 102.351,342.835 99.0175,342.502 95.5,342.5C 85.0062,344.144 74.3396,344.811 63.5,344.5C 63.3367,342.143 63.5034,339.81 64,337.5C 65.3569,333.868 66.5236,330.202 67.5,326.5C 68.9764,322.275 70.3097,317.941 71.5,313.5C 72.5,313.5 73.5,313.5 74.5,313.5C 74.6811,310.216 75.6811,307.216 77.5,304.5C 78.4614,302.735 78.7947,300.735 78.5,298.5C 79.5,298.5 80.5,298.5 81.5,298.5C 81.5,296.167 81.5,293.833 81.5,291.5C 79.1667,291.5 76.8333,291.5 74.5,291.5C 74.5,291.167 74.5,290.833 74.5,290.5C 68.1961,286.687 63.3628,281.354 60,274.5C 56.64,273.306 54.4734,270.972 53.5,267.5C 51.9246,266.544 50.258,265.877 48.5,265.5C 46.8073,264.525 45.3073,263.192 44,261.5C 43.467,258.495 42.3004,255.828 40.5,253.5C 51.4654,252.908 62.132,253.908 72.5,256.5C 74.2646,257.461 76.2646,257.795 78.5,257.5C 78.2011,259.604 78.5344,261.604 79.5,263.5C 81.1667,264.5 82.5,265.833 83.5,267.5C 84.487,264.232 84.8204,260.898 84.5,257.5C 86.5,257.5 88.5,257.5 90.5,257.5C 90.5,255.5 90.5,253.5 90.5,251.5C 85.8215,251.666 81.1548,251.499 76.5,251C 75.1416,250.066 73.8083,249.232 72.5,248.5C 74.1675,246.521 74.8342,244.188 74.5,241.5C 75.391,240.89 76.391,240.557 77.5,240.5C 78.5,240.5 79.5,240.5 80.5,240.5C 81.8597,233.369 79.0264,229.036 72,227.5C 70.2066,221.063 67.54,215.063 64,209.5C 62.5776,203.953 61.0776,198.619 59.5,193.5C 57.9033,187.367 57.2367,181.034 57.5,174.5C 61.1185,173.756 64.7852,173.423 68.5,173.5C 68.7438,176.263 70.0771,178.429 72.5,180C 80.3277,180.06 87.9943,179.56 95.5,178.5C 96.9778,178.238 98.3112,178.571 99.5,179.5C 96.8952,192.125 94.3952,204.792 92,217.5C 90.831,235.3 93.1644,252.633 99,269.5C 102.524,277.236 107.024,284.236 112.5,290.5C 109.753,290.187 107.086,290.52 104.5,291.5C 101.705,291.938 99.3717,292.938 97.5,294.5C 94.6145,295.383 91.9479,296.716 89.5,298.5C 88.3065,298.97 87.6399,299.97 87.5,301.5C 87.6667,302.5 87.8333,303.5 88,304.5C 91.5407,308.148 95.374,308.482 99.5,305.5C 100.865,304.059 102.365,302.726 104,301.5C 103.98,304.674 103.48,307.841 102.5,311C 102.544,312.764 102.878,314.431 103.5,316C 107.5,316.667 111.5,316.667 115.5,316C 116.337,314.989 116.67,313.822 116.5,312.5C 120.812,309.44 125.478,307.106 130.5,305.5C 135.168,308.501 140.168,311.001 145.5,313C 160.419,315.296 175.419,315.963 190.5,315C 202.507,307.823 209.674,297.323 212,283.5C 213.8,266.698 216.467,250.032 220,233.5C 222.441,211.615 221.274,189.948 216.5,168.5C 225.498,168.119 234.498,167.786 243.5,167.5 Z"/></g>
<g><path style="opacity:1" fill="#f5f4f4" d="M 255.5,167.5 C 277.474,168.192 299.474,168.359 321.5,168C 328.476,169.462 335.476,170.795 342.5,172C 343.257,173.512 344.257,174.846 345.5,176C 356.002,178.63 366.668,180.13 377.5,180.5C 379.188,197.639 378.188,214.639 374.5,231.5C 373.566,230.432 373.232,229.099 373.5,227.5C 372.5,227.5 371.5,227.5 370.5,227.5C 369.285,223.276 368.451,218.943 368,214.5C 367.184,213.177 366.017,212.511 364.5,212.5C 359.426,200.887 352.426,190.387 343.5,181C 327.552,170.939 310.552,168.939 292.5,175C 290.232,177.968 287.232,179.634 283.5,180C 282.267,181.667 280.933,183.167 279.5,184.5C 277.565,185.15 275.565,185.483 273.5,185.5C 273.719,186.675 273.386,187.675 272.5,188.5C 271.604,187.494 270.938,187.494 270.5,188.5C 271.248,190.416 271.248,192.416 270.5,194.5C 269.677,196.455 269.51,198.455 270,200.5C 271.49,201.728 272.99,201.728 274.5,200.5C 275.496,200.586 276.329,200.252 277,199.5C 279.032,194.635 282.532,191.302 287.5,189.5C 288.386,188.675 288.719,187.675 288.5,186.5C 292.193,187.056 294.86,185.722 296.5,182.5C 299.306,181.832 301.972,181.166 304.5,180.5C 304.611,179.883 304.944,179.383 305.5,179C 312.014,178.18 318.347,178.347 324.5,179.5C 324.5,180.5 324.5,181.5 324.5,182.5C 326.591,182.318 328.591,182.652 330.5,183.5C 331.386,184.325 331.719,185.325 331.5,186.5C 332.873,186.343 334.207,186.51 335.5,187C 337.24,188.694 339.24,189.861 341.5,190.5C 340.68,194.183 342.013,196.517 345.5,197.5C 348.955,198.496 350.788,200.83 351,204.5C 355.624,209.328 358.957,214.995 361,221.5C 368.542,240.28 369.542,259.28 364,278.5C 361.276,286.279 357.776,293.612 353.5,300.5C 353.5,296.167 353.5,291.833 353.5,287.5C 351.097,287.448 348.764,287.781 346.5,288.5C 344.801,288.34 343.134,288.506 341.5,289C 337.372,293.127 332.872,296.627 328,299.5C 327.199,302.367 327.366,305.034 328.5,307.5C 330.265,308.461 332.265,308.795 334.5,308.5C 334.285,306.821 334.952,305.821 336.5,305.5C 337.552,305.649 338.552,305.483 339.5,305C 345.314,298.203 347.647,299.37 346.5,308.5C 337.815,316.782 327.481,319.949 315.5,318C 304.079,314.371 293.246,309.537 283,303.5C 267.66,283.455 261.66,260.788 265,235.5C 261.288,212.897 258.121,190.231 255.5,167.5 Z"/></g>
<g><path style="opacity:1" fill="#ececec" d="M 112.5,174.5 C 120.8,175.241 129.133,175.741 137.5,176C 136.809,177.067 136.309,178.234 136,179.5C 133.055,183.067 129.889,186.4 126.5,189.5C 123.368,194.831 121.034,200.498 119.5,206.5C 118.5,206.5 117.5,206.5 116.5,206.5C 113.973,216.056 110.807,225.389 107,234.5C 106.827,238.541 106.327,242.541 105.5,246.5C 103.436,238.296 102.603,229.962 103,221.5C 105.709,205.676 108.876,190.009 112.5,174.5 Z"/></g>
<g><path style="opacity:1" fill="#b0b0af" d="M 180.5,173.5 C 179.152,174.186 177.985,175.186 177,176.5C 175.612,175.446 174.112,175.28 172.5,176C 173.452,180.233 174.452,184.4 175.5,188.5C 173.905,186.889 172.739,184.889 172,182.5C 171.764,180.236 171.264,178.069 170.5,176C 173.61,174.476 176.944,173.642 180.5,173.5 Z"/></g>
<g><path style="opacity:1" fill="#f5f5f4" d="M 116.5,231.5 C 119.036,228.437 120.203,224.77 120,220.5C 122.524,218.106 123.691,215.106 123.5,211.5C 125.962,205.243 128.962,199.243 132.5,193.5C 134.466,192.559 136.466,191.559 138.5,190.5C 140.529,191.629 140.863,191.129 139.5,189C 141.747,187.005 142.747,184.505 142.5,181.5C 149.354,177.672 156.354,177.672 163.5,181.5C 165.226,183.228 166.559,185.228 167.5,187.5C 159.958,188.517 154.125,192.184 150,198.5C 148.333,201.833 146.667,205.167 145,208.5C 142.43,227.64 143.097,246.64 147,265.5C 149.232,274.6 155.065,278.433 164.5,277C 162.813,278.913 162.313,281.08 163,283.5C 165.469,285.652 168.302,287.152 171.5,288C 177.882,288.689 184.215,288.355 190.5,287C 196.939,284.595 200.105,280.095 200,273.5C 199.25,272.874 198.416,272.374 197.5,272C 190.5,271.667 183.5,271.333 176.5,271C 178.901,268.938 181.567,267.271 184.5,266C 185.191,264.933 185.691,263.766 186,262.5C 188.637,245.429 190.137,228.263 190.5,211C 190.15,204.973 188.984,199.139 187,193.5C 183.935,190.051 180.102,188.384 175.5,188.5C 174.452,184.4 173.452,180.233 172.5,176C 174.112,175.28 175.612,175.446 177,176.5C 177.985,175.186 179.152,174.186 180.5,173.5C 186.514,172.297 192.514,170.964 198.5,169.5C 201.066,170.368 203.566,171.368 206,172.5C 210.728,193.38 211.395,214.38 208,235.5C 204.472,252.002 201.805,268.669 200,285.5C 197.81,292.367 193.977,298.2 188.5,303C 175.492,304.617 162.492,304.284 149.5,302C 133.965,295.793 121.799,285.627 113,271.5C 112.333,261.167 112.333,250.833 113,240.5C 113.657,237.092 114.823,234.092 116.5,231.5 Z"/></g>
<g><path style="opacity:1" fill="#b5b5b5" d="M 324.5,179.5 C 326.179,179.892 327.846,180.392 329.5,181C 333.943,183.522 338.276,186.189 342.5,189C 343.191,191.98 344.191,194.814 345.5,197.5C 342.013,196.517 340.68,194.183 341.5,190.5C 339.24,189.861 337.24,188.694 335.5,187C 334.207,186.51 332.873,186.343 331.5,186.5C 331.719,185.325 331.386,184.325 330.5,183.5C 328.591,182.652 326.591,182.318 324.5,182.5C 324.5,181.5 324.5,180.5 324.5,179.5 Z"/></g>
<g><path style="opacity:1" fill="#a9a9a9" d="M 279.5,184.5 C 276.471,187.859 273.471,191.192 270.5,194.5C 271.248,192.416 271.248,190.416 270.5,188.5C 270.938,187.494 271.604,187.494 272.5,188.5C 273.386,187.675 273.719,186.675 273.5,185.5C 275.565,185.483 277.565,185.15 279.5,184.5 Z"/></g>
<g><path style="opacity:1" fill="#a9a9a9" d="M 142.5,181.5 C 142.747,184.505 141.747,187.005 139.5,189C 140.863,191.129 140.529,191.629 138.5,190.5C 136.466,191.559 134.466,192.559 132.5,193.5C 135.573,189.111 138.906,185.111 142.5,181.5 Z"/></g>
<g><path style="opacity:1" fill="#8c8c8c" d="M 304.5,180.5 C 301.972,181.166 299.306,181.832 296.5,182.5C 294.86,185.722 292.193,187.056 288.5,186.5C 288.719,187.675 288.386,188.675 287.5,189.5C 282.532,191.302 279.032,194.635 277,199.5C 276.329,200.252 275.496,200.586 274.5,200.5C 275.32,198.86 276.153,197.193 277,195.5C 281.206,192.34 285.039,188.84 288.5,185C 291.825,185.225 294.158,183.892 295.5,181C 298.482,180.502 301.482,180.335 304.5,180.5 Z"/></g>
<g><path style="opacity:1" fill="#42f200" d="M 165.5,193.5 C 169.846,193.334 174.179,193.501 178.5,194C 183.85,197.371 185.683,202.204 184,208.5C 175.746,206.139 169.746,208.806 166,216.5C 160.573,230.005 161.573,243.005 169,255.5C 171.592,258.762 174.759,261.262 178.5,263C 173.145,267.177 167.145,270.01 160.5,271.5C 157.889,271.444 155.722,270.444 154,268.5C 148.304,249.882 146.971,230.882 150,211.5C 152.275,205.781 155.442,200.615 159.5,196C 161.611,195.155 163.611,194.322 165.5,193.5 Z"/></g>
<g><path style="opacity:1" fill="#040604" d="M 306.5,196.5 C 321.56,196.936 332.727,203.603 340,216.5C 344.828,233.148 346.494,250.148 345,267.5C 339.722,284.275 328.556,289.775 311.5,284C 304.262,280.8 297.429,276.967 291,272.5C 290.046,267.396 288.713,262.396 287,257.5C 286.333,242.833 286.333,228.167 287,213.5C 290.294,204.033 296.794,198.366 306.5,196.5 Z"/></g>
<g><path style="opacity:1" fill="#42f400" d="M 305.5,202.5 C 318.603,201.966 328.436,207.299 335,218.5C 338.41,231.929 340.244,245.596 340.5,259.5C 340.342,267.316 337.342,273.816 331.5,279C 327.5,279.667 323.5,279.667 319.5,279C 313.158,276.162 306.825,273.328 300.5,270.5C 305.038,268.065 309.704,265.898 314.5,264C 318.477,260.754 320.977,256.587 322,251.5C 323.499,240.77 322.165,230.437 318,220.5C 314.236,218.368 310.736,215.868 307.5,213C 303.583,211.527 299.583,210.361 295.5,209.5C 297.896,205.65 301.229,203.317 305.5,202.5 Z"/></g>
<g><path style="opacity:1" fill="#727272" d="M 448.5,196.5 C 448.799,198.604 448.466,200.604 447.5,202.5C 444.311,205.401 442.977,209.068 443.5,213.5C 435.52,216.738 430.853,222.738 429.5,231.5C 431.565,231.483 433.565,231.15 435.5,230.5C 435.672,231.492 435.338,232.158 434.5,232.5C 432.5,232.5 430.5,232.5 428.5,232.5C 428.48,227.866 429.646,223.533 432,219.5C 434.795,217.707 437.295,215.54 439.5,213C 440.448,212.517 441.448,212.351 442.5,212.5C 442.338,210.473 442.505,208.473 443,206.5C 445.411,203.416 447.245,200.082 448.5,196.5 Z"/></g>
<g><path style="opacity:1" fill="#515151" d="M 82.5,219.5 C 84.3079,220.918 84.9746,222.918 84.5,225.5C 83.0222,225.762 81.6888,225.429 80.5,224.5C 82.0049,223.158 82.6715,221.492 82.5,219.5 Z"/></g>
<g><path style="opacity:1" fill="#939393" d="M 123.5,211.5 C 123.691,215.106 122.524,218.106 120,220.5C 120.203,224.77 119.036,228.437 116.5,231.5C 116.888,223.996 119.221,217.329 123.5,211.5 Z"/></g>
<g><path style="opacity:1" fill="#313131" d="M 59.5,193.5 C 61.0776,198.619 62.5776,203.953 64,209.5C 67.54,215.063 70.2066,221.063 72,227.5C 79.0264,229.036 81.8597,233.369 80.5,240.5C 79.5,240.5 78.5,240.5 77.5,240.5C 80.4567,236.414 79.79,232.914 75.5,230C 71.2693,229.957 69.436,227.79 70,223.5C 69.3311,226.028 68.4978,226.028 67.5,223.5C 68.9281,220.65 68.2614,219.65 65.5,220.5C 64.2655,218.602 64.5989,216.935 66.5,215.5C 64.495,212.337 62.3283,209.337 60,206.5C 59.501,202.179 59.3343,197.846 59.5,193.5 Z"/></g>
<g><path style="opacity:1" fill="#7f7f7f" d="M 364.5,212.5 C 366.017,212.511 367.184,213.177 368,214.5C 368.451,218.943 369.285,223.276 370.5,227.5C 371.5,227.5 372.5,227.5 373.5,227.5C 373.232,229.099 373.566,230.432 374.5,231.5C 374.196,234.522 373.696,237.522 373,240.5C 372.501,236.514 372.334,232.514 372.5,228.5C 371.5,228.5 370.5,228.5 369.5,228.5C 367.981,224.391 367.147,220.057 367,215.5C 365.955,214.627 365.122,213.627 364.5,212.5 Z"/></g>
<g><path style="opacity:1" fill="#090909" d="M 436.5,236.5 C 447.172,236.333 457.839,236.5 468.5,237C 469.931,237.465 471.097,238.299 472,239.5C 473.402,246.318 472.402,252.652 469,258.5C 466.463,261.372 463.63,263.872 460.5,266C 448.971,272.101 437.304,277.601 425.5,282.5C 425.238,283.978 425.571,285.311 426.5,286.5C 429.976,289.435 432.476,293.102 434,297.5C 435,298.167 436,298.833 437,299.5C 440.987,306.474 444.154,313.808 446.5,321.5C 445.953,324.826 445.453,328.16 445,331.5C 441.298,334.032 437.465,336.365 433.5,338.5C 426.51,337.8 419.51,338.133 412.5,339.5C 410.403,339.023 408.403,338.357 406.5,337.5C 405.791,336.596 404.791,336.263 403.5,336.5C 403.5,334.5 403.5,332.5 403.5,330.5C 409.69,330.823 415.69,330.49 421.5,329.5C 426.993,329.241 432.159,327.908 437,325.5C 437.667,322.833 437.667,320.167 437,317.5C 435.89,315.963 434.39,315.297 432.5,315.5C 432.768,313.901 432.434,312.568 431.5,311.5C 430.837,309.958 430.17,308.291 429.5,306.5C 427.019,303.612 424.686,300.612 422.5,297.5C 422.657,296.127 422.49,294.793 422,293.5C 420.108,292.87 418.441,291.87 417,290.5C 416.501,286.179 416.334,281.846 416.5,277.5C 420.118,275.863 423.451,273.863 426.5,271.5C 432.1,269.06 437.766,266.727 443.5,264.5C 444.313,263.186 445.313,262.019 446.5,261C 453.099,260.263 458.099,257.097 461.5,251.5C 462.468,249.393 462.802,247.059 462.5,244.5C 449.133,242.835 435.799,243.335 422.5,246C 421.748,246.671 421.414,247.504 421.5,248.5C 418.316,249.643 414.983,250.309 411.5,250.5C 411.5,248.167 411.5,245.833 411.5,243.5C 413.833,243.5 416.167,243.5 418.5,243.5C 418.5,242.5 418.5,241.5 418.5,240.5C 424.369,239.968 430.036,238.968 435.5,237.5C 436.167,237.5 436.5,237.167 436.5,236.5 Z"/></g>
<g><path style="opacity:1" fill="#555555" d="M 462.5,244.5 C 452.161,244.334 441.828,244.5 431.5,245C 430.833,245.667 430.167,246.333 429.5,247C 426.746,247.272 424.079,247.772 421.5,248.5C 421.414,247.504 421.748,246.671 422.5,246C 435.799,243.335 449.133,242.835 462.5,244.5 Z"/></g>
<g><path style="opacity:1" fill="#0a0a0a" d="M 72.5,248.5 C 73.8083,249.232 75.1416,250.066 76.5,251C 81.1548,251.499 85.8215,251.666 90.5,251.5C 90.5,253.5 90.5,255.5 90.5,257.5C 88.5,257.5 86.5,257.5 84.5,257.5C 84.8204,260.898 84.487,264.232 83.5,267.5C 82.5,265.833 81.1667,264.5 79.5,263.5C 78.5344,261.604 78.2011,259.604 78.5,257.5C 76.2646,257.795 74.2646,257.461 72.5,256.5C 69.1262,254.93 65.4595,253.763 61.5,253C 54.3209,252.179 47.3209,252.345 40.5,253.5C 42.3004,255.828 43.467,258.495 44,261.5C 45.3073,263.192 46.8073,264.525 48.5,265.5C 55.5688,273.745 62.9021,281.911 70.5,290C 71.7932,290.49 73.1266,290.657 74.5,290.5C 74.5,290.833 74.5,291.167 74.5,291.5C 75.9187,292.451 77.5853,292.784 79.5,292.5C 78.4746,296.427 77.8079,300.427 77.5,304.5C 75.6811,307.216 74.6811,310.216 74.5,313.5C 73.5,313.5 72.5,313.5 71.5,313.5C 70.3097,317.941 68.9764,322.275 67.5,326.5C 65.4491,329.505 63.9491,332.838 63,336.5C 62.502,339.482 62.3354,342.482 62.5,345.5C 76.9906,345.581 91.3239,344.914 105.5,343.5C 106.738,345.214 107.405,347.214 107.5,349.5C 112.456,349.305 117.123,350.305 121.5,352.5C 122.687,354.975 124.687,355.975 127.5,355.5C 127.5,356.5 127.5,357.5 127.5,358.5C 132.249,360.704 137.249,362.037 142.5,362.5C 143.023,364.708 144.356,366.208 146.5,367C 151.222,366.957 155.555,368.124 159.5,370.5C 161.722,372.884 162.056,375.551 160.5,378.5C 165.275,380.147 170.275,380.814 175.5,380.5C 175.611,381.117 175.944,381.617 176.5,382C 180.933,382.852 185.267,384.019 189.5,385.5C 183.278,388.757 176.945,388.757 170.5,385.5C 159.91,384.69 149.243,384.19 138.5,384C 132.47,381.6 126.47,379.1 120.5,376.5C 122.131,384.023 126.131,390.023 132.5,394.5C 134.797,398.63 137.297,402.63 140,406.5C 144.238,408.566 147.738,411.566 150.5,415.5C 153.204,416.572 155.87,417.572 158.5,418.5C 158.896,421.044 158.229,423.211 156.5,425C 154.073,426.591 151.407,427.425 148.5,427.5C 148.5,432.167 146.167,434.5 141.5,434.5C 141.5,435.833 141.5,437.167 141.5,438.5C 140.545,443 138.045,446.667 134,449.5C 133.383,450.449 133.549,451.282 134.5,452C 148.329,452.733 161.995,452.233 175.5,450.5C 175.528,452.582 174.861,454.416 173.5,456C 175.426,456.422 176.426,457.589 176.5,459.5C 177.471,468.416 177.804,477.416 177.5,486.5C 174.71,487.967 173.044,490.3 172.5,493.5C 171.687,494.653 170.687,494.653 169.5,493.5C 168.645,491.392 167.978,489.226 167.5,487C 170.26,477.336 170.927,467.503 169.5,457.5C 166.484,460.76 162.984,461.427 159,459.5C 151.793,460.031 144.626,460.864 137.5,462C 132.914,466.75 127.748,467.583 122,464.5C 120.016,459.385 120.349,454.385 123,449.5C 126,445.833 129,442.167 132,438.5C 132.875,435.117 133.875,431.784 135,428.5C 138.177,426.489 140.677,423.822 142.5,420.5C 135.166,414.331 128.666,407.331 123,399.5C 118.249,391.663 113.249,383.996 108,376.5C 106.132,366.177 110.299,362.344 120.5,365C 115.579,361.767 110.246,359.434 104.5,358C 102.792,355.957 100.792,354.29 98.5,353C 88.2308,353.909 77.8974,354.576 67.5,355C 65.4404,356.696 63.1071,357.863 60.5,358.5C 58.0557,357.778 55.7223,356.778 53.5,355.5C 52.3372,350.198 52.1705,344.864 53,339.5C 57.2534,326.401 62.0868,313.568 67.5,301C 58.4378,291.963 50.2711,282.463 43,272.5C 38.2019,267.711 34.2019,262.377 31,256.5C 30.3333,253.167 30.3333,249.833 31,246.5C 32.923,245.684 34.923,245.017 37,244.5C 46.7991,245.297 56.6324,245.797 66.5,246C 68.4068,247.122 70.4068,247.955 72.5,248.5 Z M 126.5,368.5 C 128.153,368.66 129.486,369.326 130.5,370.5C 128.62,370.771 127.287,370.104 126.5,368.5 Z M 133.5,371.5 C 140.464,372.21 147.131,374.043 153.5,377C 146.15,377.267 139.483,375.433 133.5,371.5 Z"/></g>
<g><path style="opacity:1" fill="#9c9c9c" d="M 435.5,237.5 C 430.036,238.968 424.369,239.968 418.5,240.5C 418.5,241.5 418.5,242.5 418.5,243.5C 416.167,243.5 413.833,243.5 411.5,243.5C 411.5,245.833 411.5,248.167 411.5,250.5C 410.527,248.052 410.194,245.385 410.5,242.5C 412.833,242.5 415.167,242.5 417.5,242.5C 417.5,241.5 417.5,240.5 417.5,239.5C 423.465,238.574 429.465,237.908 435.5,237.5 Z"/></g>
<g><path style="opacity:1" fill="#cdcdcd" d="M 462.5,244.5 C 462.802,247.059 462.468,249.393 461.5,251.5C 461.167,251.5 460.833,251.5 460.5,251.5C 460.5,249.833 460.5,248.167 460.5,246.5C 447.953,245.854 435.62,246.688 423.5,249C 424.448,249.483 425.448,249.649 426.5,249.5C 426.719,250.675 426.386,251.675 425.5,252.5C 422.124,250.143 418.624,250.143 415,252.5C 413.319,252.392 412.152,251.725 411.5,250.5C 414.983,250.309 418.316,249.643 421.5,248.5C 424.079,247.772 426.746,247.272 429.5,247C 430.167,246.333 430.833,245.667 431.5,245C 441.828,244.5 452.161,244.334 462.5,244.5 Z"/></g>
<g><path style="opacity:1" fill="#6b6b6b" d="M 40.5,253.5 C 47.3209,252.345 54.3209,252.179 61.5,253C 65.4595,253.763 69.1262,254.93 72.5,256.5C 62.132,253.908 51.4654,252.908 40.5,253.5 Z"/></g>
<g><path style="opacity:1" fill="#757575" d="M 460.5,251.5 C 460.833,251.5 461.167,251.5 461.5,251.5C 458.099,257.097 453.099,260.263 446.5,261C 445.313,262.019 444.313,263.186 443.5,264.5C 437.766,266.727 432.1,269.06 426.5,271.5C 426.414,270.504 426.748,269.671 427.5,269C 429.134,268.506 430.801,268.34 432.5,268.5C 432.5,267.5 432.5,266.5 432.5,265.5C 437.506,265.345 441.839,263.511 445.5,260C 446.793,259.51 448.127,259.343 449.5,259.5C 449.5,258.5 449.5,257.5 449.5,256.5C 451.527,256.662 453.527,256.495 455.5,256C 457.037,254.293 458.704,252.793 460.5,251.5 Z"/></g>
<g><path style="opacity:1" fill="#c5c5c5" d="M 48.5,265.5 C 50.258,265.877 51.9246,266.544 53.5,267.5C 54.4734,270.972 56.64,273.306 60,274.5C 63.3628,281.354 68.1961,286.687 74.5,290.5C 73.1266,290.657 71.7932,290.49 70.5,290C 62.9021,281.911 55.5688,273.745 48.5,265.5 Z"/></g>
<g><path style="opacity:1" fill="#666666" d="M 416.5,277.5 C 416.334,281.846 416.501,286.179 417,290.5C 418.441,291.87 420.108,292.87 422,293.5C 422.49,294.793 422.657,296.127 422.5,297.5C 421.596,296.791 421.263,295.791 421.5,294.5C 419.019,294.677 417.186,293.677 416,291.5C 415.185,286.648 415.352,281.981 416.5,277.5 Z"/></g>
<g><path style="opacity:1" fill="#e4a2a1" d="M 112.5,290.5 C 113.833,291.167 114.833,292.167 115.5,293.5C 113.825,296.507 113.159,299.84 113.5,303.5C 116.221,303.037 118.888,302.371 121.5,301.5C 119.081,303.862 116.081,304.862 112.5,304.5C 111.748,301.253 111.248,297.919 111,294.5C 110.5,294 110,293.5 109.5,293C 105.733,294.138 101.733,294.638 97.5,294.5C 99.3717,292.938 101.705,291.938 104.5,291.5C 107.086,290.52 109.753,290.187 112.5,290.5 Z"/></g>
<g><path style="opacity:1" fill="#cd6269" d="M 353.5,300.5 C 353.5,301.167 353.167,301.5 352.5,301.5C 352.665,297.818 352.499,294.152 352,290.5C 348.929,289.862 345.763,289.862 342.5,290.5C 343.833,289.833 345.167,289.167 346.5,288.5C 348.764,287.781 351.097,287.448 353.5,287.5C 353.5,291.833 353.5,296.167 353.5,300.5 Z"/></g>
<g><path style="opacity:1" fill="#909090" d="M 74.5,291.5 C 76.8333,291.5 79.1667,291.5 81.5,291.5C 81.5,293.833 81.5,296.167 81.5,298.5C 80.5,298.5 79.5,298.5 78.5,298.5C 78.7947,300.735 78.4614,302.735 77.5,304.5C 77.8079,300.427 78.4746,296.427 79.5,292.5C 77.5853,292.784 75.9187,292.451 74.5,291.5 Z"/></g>
<g><path style="opacity:1" fill="#cd393d" d="M 112.5,304.5 C 116.081,304.862 119.081,303.862 121.5,301.5C 121.5,300.833 121.833,300.5 122.5,300.5C 125.511,301.669 128.178,303.336 130.5,305.5C 125.478,307.106 120.812,309.44 116.5,312.5C 114.952,312.821 114.285,313.821 114.5,315.5C 111.167,315.5 107.833,315.5 104.5,315.5C 104.44,310.307 105.107,305.307 106.5,300.5C 107.5,300.5 108.5,300.5 109.5,300.5C 109.5,299.167 109.5,297.833 109.5,296.5C 103.943,296.153 98.6098,296.82 93.5,298.5C 93.8351,302.511 95.8351,303.511 99.5,301.5C 99.0472,302.458 98.3805,303.292 97.5,304C 94.854,304.497 92.1873,304.664 89.5,304.5C 89.5,302.5 89.5,300.5 89.5,298.5C 91.9479,296.716 94.6145,295.383 97.5,294.5C 101.733,294.638 105.733,294.138 109.5,293C 110,293.5 110.5,294 111,294.5C 111.248,297.919 111.748,301.253 112.5,304.5 Z"/></g>
<g><path style="opacity:1" fill="#f4e2e4" d="M 115.5,293.5 C 118.167,295.5 120.5,297.833 122.5,300.5C 121.833,300.5 121.5,300.833 121.5,301.5C 118.888,302.371 116.221,303.037 113.5,303.5C 113.159,299.84 113.825,296.507 115.5,293.5 Z"/></g>
<g><path style="opacity:1" fill="#df1d24" d="M 106.5,300.5 C 105.903,299.861 105.07,299.528 104,299.5C 102.393,300.074 100.893,300.74 99.5,301.5C 95.8351,303.511 93.8351,302.511 93.5,298.5C 98.6098,296.82 103.943,296.153 109.5,296.5C 109.5,297.833 109.5,299.167 109.5,300.5C 108.5,300.5 107.5,300.5 106.5,300.5 Z"/></g>
<g><path style="opacity:1" fill="#e79e9d" d="M 346.5,288.5 C 345.167,289.167 343.833,289.833 342.5,290.5C 340.5,291.833 338.833,293.5 337.5,295.5C 334.802,297.271 331.969,298.937 329,300.5C 328.503,302.81 328.337,305.143 328.5,307.5C 327.366,305.034 327.199,302.367 328,299.5C 332.872,296.627 337.372,293.127 341.5,289C 343.134,288.506 344.801,288.34 346.5,288.5 Z"/></g>
<g><path style="opacity:1" fill="#f0b2b0" d="M 347.5,307.5 C 347.5,308.167 347.167,308.5 346.5,308.5C 347.647,299.37 345.314,298.203 339.5,305C 338.552,305.483 337.552,305.649 336.5,305.5C 339.501,302.507 342.835,299.841 346.5,297.5C 347.487,300.768 347.82,304.102 347.5,307.5 Z"/></g>
<g><path style="opacity:1" fill="#cd3a3f" d="M 352.5,301.5 C 351.299,303.909 349.633,305.909 347.5,307.5C 347.82,304.102 347.487,300.768 346.5,297.5C 342.835,299.841 339.501,302.507 336.5,305.5C 334.952,305.821 334.285,306.821 334.5,308.5C 332.265,308.795 330.265,308.461 328.5,307.5C 328.337,305.143 328.503,302.81 329,300.5C 331.969,298.937 334.802,297.271 337.5,295.5C 338.833,293.5 340.5,291.833 342.5,290.5C 345.763,289.862 348.929,289.862 352,290.5C 352.499,294.152 352.665,297.818 352.5,301.5 Z"/></g>
<g><path style="opacity:1" fill="#e41a21" d="M 337.5,295.5 C 339.117,294.962 340.784,294.629 342.5,294.5C 342.5,293.5 342.5,292.5 342.5,291.5C 349.833,290.167 352.833,293.167 351.5,300.5C 350.5,300.5 349.5,300.5 348.5,300.5C 349.596,295.624 347.929,293.957 343.5,295.5C 342.289,297.422 340.956,299.255 339.5,301C 336.629,301.131 334.295,302.297 332.5,304.5C 332.167,304 331.833,303.5 331.5,303C 333.21,301.389 335.043,299.889 337,298.5C 337.483,297.552 337.649,296.552 337.5,295.5 Z"/></g>
<g><path style="opacity:1" fill="#cf3331" d="M 360.5,310.5 C 362.866,307.143 365.199,303.81 367.5,300.5C 369.199,300.66 370.866,300.494 372.5,300C 374.942,296.241 377.776,295.741 381,298.5C 381.667,300.167 381.667,301.833 381,303.5C 374.162,305.753 367.329,308.086 360.5,310.5 Z"/></g>
<g><path style="opacity:1" fill="#e1191f" d="M 112.5,304.5 C 116.272,310.481 114.605,313.148 107.5,312.5C 107.335,309.15 107.502,305.817 108,302.5C 109.33,303.582 110.83,304.249 112.5,304.5 Z"/></g>
<g><path style="opacity:1" fill="#5f4d40" d="M 326.5,359.5 C 323,362.831 319.334,365.998 315.5,369C 318.777,368.799 322.111,368.632 325.5,368.5C 323.469,368.972 321.802,369.972 320.5,371.5C 317.927,370.445 315.261,370.278 312.5,371C 302.113,376.341 291.113,378.174 279.5,376.5C 258.529,375.367 237.529,375.534 216.5,377C 212.42,377.687 208.42,378.687 204.5,380C 203.944,380.383 203.611,380.883 203.5,381.5C 195.734,380.706 187.9,380.039 180,379.5C 178.293,379.508 176.793,379.842 175.5,380.5C 170.275,380.814 165.275,380.147 160.5,378.5C 162.056,375.551 161.722,372.884 159.5,370.5C 155.555,368.124 151.222,366.957 146.5,367C 144.356,366.208 143.023,364.708 142.5,362.5C 140.168,360.904 137.501,359.738 134.5,359C 132.845,357.556 132.178,355.722 132.5,353.5C 132.944,351.887 133.944,350.72 135.5,350C 141.5,349.667 147.5,349.333 153.5,349C 163.111,347.538 170.778,343.038 176.5,335.5C 180.37,334.966 184.037,333.8 187.5,332C 190.996,327.909 194.662,323.909 198.5,320C 212.803,312.81 227.97,309.976 244,311.5C 251.907,311.383 259.74,311.883 267.5,313C 269.349,314.093 271.016,315.426 272.5,317C 278.966,316.392 283.3,319.059 285.5,325C 290.865,329.684 296.865,333.35 303.5,336C 317.845,335.078 332.178,335.412 346.5,337C 350.393,340.588 350.393,344.254 346.5,348C 341.047,352.454 334.714,354.621 327.5,354.5C 327.634,356.292 327.301,357.958 326.5,359.5 Z"/></g>
<g><path style="opacity:1" fill="#f2d2cc" d="M 354.5,317.5 C 356.5,315.167 358.5,312.833 360.5,310.5C 367.329,308.086 374.162,305.753 381,303.5C 381.667,301.833 381.667,300.167 381,298.5C 377.776,295.741 374.942,296.241 372.5,300C 370.866,300.494 369.199,300.66 367.5,300.5C 367.328,299.508 367.662,298.842 368.5,298.5C 369.873,298.657 371.207,298.49 372.5,298C 376.506,294.043 381.173,293.377 386.5,296C 386.167,296.333 385.833,296.667 385.5,297C 386.357,297.689 387.023,298.522 387.5,299.5C 385.497,301.133 384.164,303.133 383.5,305.5C 379.633,307.717 375.299,308.883 370.5,309C 369.257,310.154 368.257,311.488 367.5,313C 365.5,313.333 363.5,313.667 361.5,314C 359.607,316.022 357.273,317.188 354.5,317.5 Z"/></g>
<g><path style="opacity:1" fill="#f1c2bf" d="M 89.5,298.5 C 89.5,300.5 89.5,302.5 89.5,304.5C 92.1873,304.664 94.854,304.497 97.5,304C 98.3805,303.292 99.0472,302.458 99.5,301.5C 100.893,300.74 102.393,300.074 104,299.5C 105.07,299.528 105.903,299.861 106.5,300.5C 105.107,305.307 104.44,310.307 104.5,315.5C 107.833,315.5 111.167,315.5 114.5,315.5C 114.285,313.821 114.952,312.821 116.5,312.5C 116.67,313.822 116.337,314.989 115.5,316C 111.5,316.667 107.5,316.667 103.5,316C 102.878,314.431 102.544,312.764 102.5,311C 103.48,307.841 103.98,304.674 104,301.5C 102.365,302.726 100.865,304.059 99.5,305.5C 95.374,308.482 91.5407,308.148 88,304.5C 87.8333,303.5 87.6667,302.5 87.5,301.5C 87.6399,299.97 88.3065,298.97 89.5,298.5 Z"/></g>
<g><path style="opacity:1" fill="#b1b1b1" d="M 431.5,311.5 C 432.434,312.568 432.768,313.901 432.5,315.5C 434.39,315.297 435.89,315.963 437,317.5C 437.667,320.167 437.667,322.833 437,325.5C 432.159,327.908 426.993,329.241 421.5,329.5C 426.062,327.981 430.728,326.314 435.5,324.5C 435.808,322.076 435.474,319.743 434.5,317.5C 432.077,316.288 431.077,314.288 431.5,311.5 Z"/></g>
<g><path style="opacity:1" fill="#f5f5f5" d="M 242.5,326.5 C 248.602,326.377 254.602,327.043 260.5,328.5C 261.48,331.086 261.813,333.753 261.5,336.5C 259.265,336.205 257.265,336.539 255.5,337.5C 249.95,337.763 244.45,337.43 239,336.5C 235.743,335.048 233.41,332.715 232,329.5C 223.79,331.913 223.623,331.413 231.5,328C 235.356,327.823 239.023,327.323 242.5,326.5 Z"/></g>
<g><path style="opacity:1" fill="#989898" d="M 421.5,329.5 C 415.69,330.49 409.69,330.823 403.5,330.5C 403.5,332.5 403.5,334.5 403.5,336.5C 404.791,336.263 405.791,336.596 406.5,337.5C 405.167,337.5 403.833,337.5 402.5,337.5C 401.221,334.998 401.221,332.498 402.5,330C 408.825,329.5 415.158,329.334 421.5,329.5 Z"/></g>
<g><path style="opacity:1" fill="#dedddc" d="M 216.5,334.5 C 214.52,335.848 213.353,337.848 213,340.5C 210.286,341.206 208.119,342.539 206.5,344.5C 204.473,344.662 202.473,344.495 200.5,344C 205.075,338.754 210.242,334.254 216,330.5C 216.49,331.793 216.657,333.127 216.5,334.5 Z"/></g>
<g><path style="opacity:1" fill="#717171" d="M 231.5,333.5 C 229.833,333.5 228.167,333.5 226.5,333.5C 226.4,336.108 227.067,338.442 228.5,340.5C 225.828,338.609 224.828,335.942 225.5,332.5C 227.735,332.205 229.735,332.539 231.5,333.5 Z"/></g>
<g><path style="opacity:1" fill="#1b1b1b" d="M 265.5,342.5 C 262.918,342.025 260.918,342.692 259.5,344.5C 250.295,345.009 241.295,344.343 232.5,342.5C 231.817,340.824 230.483,340.157 228.5,340.5C 227.067,338.442 226.4,336.108 226.5,333.5C 228.167,333.5 229.833,333.5 231.5,333.5C 236.188,337.344 241.688,339.344 248,339.5C 250.929,339.475 253.429,338.809 255.5,337.5C 257.265,336.539 259.265,336.205 261.5,336.5C 262.473,334.052 262.806,331.385 262.5,328.5C 264.144,328.286 265.644,328.62 267,329.5C 267.942,334.091 267.442,338.424 265.5,342.5 Z"/></g>
<g><path style="opacity:1" fill="#090909" d="M 398.5,339.5 C 398.607,341.903 397.607,343.736 395.5,345C 389.421,347.137 383.421,349.471 377.5,352C 372.442,356.057 367.108,359.724 361.5,363C 351.755,365.347 342.088,368.014 332.5,371C 334.686,374.205 336.186,377.705 337,381.5C 340.966,384.464 344.633,387.797 348,391.5C 350.965,396.43 354.631,400.763 359,404.5C 360,407.5 361,410.5 362,413.5C 365.928,419.03 369.595,424.696 373,430.5C 378.597,441.362 383.931,452.362 389,463.5C 390.36,470.468 391.527,477.468 392.5,484.5C 392.464,489.906 390.131,491.572 385.5,489.5C 384.446,478.056 381.113,467.39 375.5,457.5C 377.133,454.142 376.133,452.142 372.5,451.5C 369.989,447.161 368.155,442.494 367,437.5C 362.263,430.12 357.597,422.787 353,415.5C 352.814,413.1 352.314,410.766 351.5,408.5C 349.099,407.313 346.765,405.979 344.5,404.5C 342.556,396.892 337.89,391.892 330.5,389.5C 327.934,385.673 325.101,382.007 322,378.5C 321.338,376.187 320.838,373.854 320.5,371.5C 321.802,369.972 323.469,368.972 325.5,368.5C 326.702,365.144 329.036,362.811 332.5,361.5C 339.679,359.904 346.679,357.904 353.5,355.5C 358.811,354.912 362.811,352.079 365.5,347C 370.767,344.881 376.1,343.048 381.5,341.5C 381.5,340.5 381.5,339.5 381.5,338.5C 384.434,337.712 387.434,337.046 390.5,336.5C 392.167,336.667 393.833,336.833 395.5,337C 396.078,338.417 397.078,339.25 398.5,339.5 Z"/></g>
<g><path style="opacity:1" fill="#cac9c8" d="M 242.5,326.5 C 239.023,327.323 235.356,327.823 231.5,328C 223.623,331.413 223.79,331.913 232,329.5C 233.41,332.715 235.743,335.048 239,336.5C 244.45,337.43 249.95,337.763 255.5,337.5C 253.429,338.809 250.929,339.475 248,339.5C 241.688,339.344 236.188,337.344 231.5,333.5C 229.735,332.539 227.735,332.205 225.5,332.5C 224.828,335.942 225.828,338.609 228.5,340.5C 230.483,340.157 231.817,340.824 232.5,342.5C 233.5,343.167 234.5,343.833 235.5,344.5C 234.508,344.328 233.842,344.662 233.5,345.5C 229.347,342.585 224.847,341.918 220,343.5C 219.53,342.423 219.697,341.423 220.5,340.5C 220.5,339.167 221.167,338.5 222.5,338.5C 223.329,335.186 223.662,331.852 223.5,328.5C 229.707,326.817 236.04,326.15 242.5,326.5 Z"/></g>
<g><path style="opacity:1" fill="#191919" d="M 222.5,338.5 C 221.167,338.5 220.5,339.167 220.5,340.5C 218.5,343.833 215.833,346.5 212.5,348.5C 211.5,349.167 210.5,349.833 209.5,350.5C 202.825,350.666 196.158,350.5 189.5,350C 190.833,348.667 192.167,347.333 193.5,346C 198.019,345.825 202.353,345.325 206.5,344.5C 208.119,342.539 210.286,341.206 213,340.5C 213.353,337.848 214.52,335.848 216.5,334.5C 218.048,334.179 218.715,333.179 218.5,331.5C 219.833,331.5 221.167,331.5 222.5,331.5C 222.5,333.833 222.5,336.167 222.5,338.5 Z"/></g>
<g><path style="opacity:1" fill="#858585" d="M 67.5,326.5 C 66.5236,330.202 65.3569,333.868 64,337.5C 63.5034,339.81 63.3367,342.143 63.5,344.5C 74.3396,344.811 85.0062,344.144 95.5,342.5C 99.0175,342.502 102.351,342.835 105.5,343.5C 91.3239,344.914 76.9906,345.581 62.5,345.5C 62.3354,342.482 62.502,339.482 63,336.5C 63.9491,332.838 65.4491,329.505 67.5,326.5 Z"/></g>
<g><path style="opacity:1" fill="#858585" d="M 232.5,342.5 C 241.295,344.343 250.295,345.009 259.5,344.5C 251.599,345.813 243.599,345.813 235.5,344.5C 234.5,343.833 233.5,343.167 232.5,342.5 Z"/></g>
<g><path style="opacity:1" fill="#f5f4f4" d="M 233.5,345.5 C 233.842,344.662 234.508,344.328 235.5,344.5C 243.599,345.813 251.599,345.813 259.5,344.5C 260.918,342.692 262.918,342.025 265.5,342.5C 266.117,342.389 266.617,342.056 267,341.5C 267.147,344.571 267.98,347.404 269.5,350C 281.969,352.938 294.636,354.271 307.5,354C 306.726,356.405 306.226,358.905 306,361.5C 303.07,363.255 299.903,364.422 296.5,365C 279.833,365.667 263.167,365.667 246.5,365C 247.797,362.455 247.631,359.955 246,357.5C 243.43,355.131 240.596,353.131 237.5,351.5C 235.748,349.754 234.415,347.754 233.5,345.5 Z"/></g>
<g><path style="opacity:1" fill="#f2f2f1" d="M 209.5,350.5 C 210.5,349.833 211.5,349.167 212.5,348.5C 213.738,347.588 215.072,347.421 216.5,348C 213.22,354.558 210.22,361.225 207.5,368C 197.561,369.562 187.561,369.895 177.5,369C 170.13,367.013 169.13,363.68 174.5,359C 177.674,357.275 181.007,355.942 184.5,355C 185.5,354 186.5,353 187.5,352C 195.011,351.829 202.345,351.329 209.5,350.5 Z"/></g>
<g><path style="opacity:1" fill="#b3b1b0" d="M 121.5,352.5 C 124.944,353.646 128.278,354.979 131.5,356.5C 131.263,355.209 131.596,354.209 132.5,353.5C 132.178,355.722 132.845,357.556 134.5,359C 137.501,359.738 140.168,360.904 142.5,362.5C 137.249,362.037 132.249,360.704 127.5,358.5C 127.5,357.5 127.5,356.5 127.5,355.5C 124.687,355.975 122.687,354.975 121.5,352.5 Z"/></g>
<g><path style="opacity:1" fill="#d1d0cf" d="M 353.5,355.5 C 346.679,357.904 339.679,359.904 332.5,361.5C 329.036,362.811 326.702,365.144 325.5,368.5C 322.111,368.632 318.777,368.799 315.5,369C 319.334,365.998 323,362.831 326.5,359.5C 327.097,360.139 327.93,360.472 329,360.5C 337.156,358.711 345.323,357.044 353.5,355.5 Z"/></g>
<g><path style="opacity:1" fill="#5e1306" d="M 320.5,371.5 C 320.838,373.854 321.338,376.187 322,378.5C 325.101,382.007 327.934,385.673 330.5,389.5C 326.454,389.952 322.454,390.619 318.5,391.5C 309.416,389.985 300.416,390.485 291.5,393C 265.638,392.402 239.805,393.236 214,395.5C 204.485,394.832 194.985,393.999 185.5,393C 183.331,390.797 180.665,389.964 177.5,390.5C 173.763,390.759 171.43,389.093 170.5,385.5C 176.945,388.757 183.278,388.757 189.5,385.5C 185.267,384.019 180.933,382.852 176.5,382C 175.944,381.617 175.611,381.117 175.5,380.5C 176.793,379.842 178.293,379.508 180,379.5C 187.9,380.039 195.734,380.706 203.5,381.5C 206.042,382.624 208.708,383.458 211.5,384C 226.511,385.827 241.511,385.827 256.5,384C 264.116,382.182 271.783,380.682 279.5,379.5C 279.5,378.5 279.5,377.5 279.5,376.5C 291.113,378.174 302.113,376.341 312.5,371C 315.261,370.278 317.927,370.445 320.5,371.5 Z"/></g>
<g><path style="opacity:1" fill="#928f93" d="M 279.5,376.5 C 279.5,377.5 279.5,378.5 279.5,379.5C 271.783,380.682 264.116,382.182 256.5,384C 241.511,385.827 226.511,385.827 211.5,384C 208.708,383.458 206.042,382.624 203.5,381.5C 203.611,380.883 203.944,380.383 204.5,380C 208.42,378.687 212.42,377.687 216.5,377C 237.529,375.534 258.529,375.367 279.5,376.5 Z"/></g>
<g><path style="opacity:1" fill="#949398" d="M 170.5,385.5 C 171.43,389.093 173.763,390.759 177.5,390.5C 174.781,402.498 171.948,414.498 169,426.5C 160.369,431.732 151.203,435.732 141.5,438.5C 141.5,437.167 141.5,435.833 141.5,434.5C 146.167,434.5 148.5,432.167 148.5,427.5C 151.407,427.425 154.073,426.591 156.5,425C 158.229,423.211 158.896,421.044 158.5,418.5C 155.87,417.572 153.204,416.572 150.5,415.5C 147.738,411.566 144.238,408.566 140,406.5C 137.297,402.63 134.797,398.63 132.5,394.5C 126.131,390.023 122.131,384.023 120.5,376.5C 126.47,379.1 132.47,381.6 138.5,384C 149.243,384.19 159.91,384.69 170.5,385.5 Z"/></g>
<g><path style="opacity:1" fill="#959499" d="M 330.5,389.5 C 337.89,391.892 342.556,396.892 344.5,404.5C 346.765,405.979 349.099,407.313 351.5,408.5C 352.314,410.766 352.814,413.1 353,415.5C 357.597,422.787 362.263,430.12 367,437.5C 368.155,442.494 369.989,447.161 372.5,451.5C 364.05,448.741 355.384,446.908 346.5,446C 344.671,445.727 343.171,444.893 342,443.5C 336.854,433.207 331.187,423.207 325,413.5C 321.879,406.317 319.712,398.983 318.5,391.5C 322.454,390.619 326.454,389.952 330.5,389.5 Z"/></g>
<g><path style="opacity:1" fill="#f89604" d="M 177.5,390.5 C 180.665,389.964 183.331,390.797 185.5,393C 194.985,393.999 204.485,394.832 214,395.5C 239.805,393.236 265.638,392.402 291.5,393C 300.416,390.485 309.416,389.985 318.5,391.5C 319.712,398.983 321.879,406.317 325,413.5C 331.187,423.207 336.854,433.207 342,443.5C 343.171,444.893 344.671,445.727 346.5,446C 355.384,446.908 364.05,448.741 372.5,451.5C 376.133,452.142 377.133,454.142 375.5,457.5C 381.113,467.39 384.446,478.056 385.5,489.5C 382.722,490.968 379.722,491.801 376.5,492C 362.688,493.711 348.854,493.878 335,492.5C 311.362,494.459 287.696,494.459 264,492.5C 234.567,495.219 205.067,496.052 175.5,495C 174.473,494.487 173.473,493.987 172.5,493.5C 173.044,490.3 174.71,487.967 177.5,486.5C 178.166,482.18 178.499,477.68 178.5,473C 178.493,468.114 177.826,463.614 176.5,459.5C 176.426,457.589 175.426,456.422 173.5,456C 174.861,454.416 175.528,452.582 175.5,450.5C 161.995,452.233 148.329,452.733 134.5,452C 133.549,451.282 133.383,450.449 134,449.5C 138.045,446.667 140.545,443 141.5,438.5C 151.203,435.732 160.369,431.732 169,426.5C 171.948,414.498 174.781,402.498 177.5,390.5 Z"/></g>
<g><path style="opacity:1" fill="#faba05" d="M 238.5,403.5 C 251.266,403.059 263.932,403.893 276.5,406C 285.344,408.336 292.844,412.836 299,419.5C 302.667,425.5 306.333,431.5 310,437.5C 314.36,453.721 310.86,467.888 299.5,480C 294.176,482.705 288.51,484.038 282.5,484C 261.442,485.9 240.776,483.9 220.5,478C 213.578,475.294 207.411,471.46 202,466.5C 197.837,452.941 199.17,439.941 206,427.5C 214.172,415.686 225.006,407.686 238.5,403.5 Z"/></g>
<g><path style="opacity:1" fill="#fa9600" d="M 243.5,413.5 C 257.314,412.83 270.647,414.997 283.5,420C 286.295,421.793 288.795,423.96 291,426.5C 294.333,431.833 297.667,437.167 301,442.5C 302.884,453.811 300.051,463.644 292.5,472C 270.644,475.753 248.977,474.753 227.5,469C 221.608,466.805 216.108,463.971 211,460.5C 208.42,450.642 209.753,441.309 215,432.5C 217.872,429.963 220.372,427.13 222.5,424C 228.503,418.332 235.503,414.832 243.5,413.5 Z"/></g>
<g><path style="opacity:1" fill="#faba04" d="M 249.5,419.5 C 255.883,418.476 261.383,420.143 266,424.5C 272.199,434.126 276.032,444.626 277.5,456C 281.891,458.614 286.391,461.114 291,463.5C 292.041,466.636 291.207,469.136 288.5,471C 281.189,470.673 274.689,468.173 269,463.5C 267.408,457.085 265.575,450.752 263.5,444.5C 258.433,450.205 252.433,454.705 245.5,458C 244.266,462.068 241.599,464.568 237.5,465.5C 233.164,464.499 231.664,461.832 233,457.5C 237.29,450.92 243.123,446.087 250.5,443C 253.927,440.244 256.593,436.91 258.5,433C 257.833,431.667 256.833,430.667 255.5,430C 247.902,429.634 245.902,426.134 249.5,419.5 Z"/></g>
<g><path style="opacity:1" fill="#ba7d1e" d="M 176.5,459.5 C 177.826,463.614 178.493,468.114 178.5,473C 178.499,477.68 178.166,482.18 177.5,486.5C 177.804,477.416 177.471,468.416 176.5,459.5 Z"/></g>
</svg>
